<svg xmlns="http://www.w3.org/2000/svg" width="220" height="220" viewBox="0 0 220 220" role="img" aria-labelledby="title desc">
  <title id="title">Magnolia Senior Care icon for dark backgrounds</title>
  <desc id="desc">Simplified Magnolia Senior Care icon with flower, roof, M, and care symbol for dark backgrounds.</desc>
  <rect width="220" height="220" rx="38" fill="#145A4A"/>
  <path d="M51 145C39 124 28 108 14 96C40 96 60 110 68 134" stroke="#C8922E" stroke-width="6" stroke-linecap="round" stroke-linejoin="round"/>
  <path d="M58 151C70 130 86 117 108 112C106 137 90 156 64 165" stroke="#FFFFFF" stroke-width="6" stroke-linecap="round" stroke-linejoin="round"/>
  <path d="M64 167C91 189 130 190 170 170" stroke="#2F8FA3" stroke-width="8" stroke-linecap="round"/>
  <path d="M58 91L110 49L162 91" stroke="#FFFFFF" stroke-width="12" stroke-linecap="round" stroke-linejoin="round"/>
  <path d="M73 93V140C73 147 79 153 86 153H134C141 153 147 147 147 140V93" stroke="#FFFFFF" stroke-width="10" stroke-linecap="round" stroke-linejoin="round"/>
  <text x="110" y="136" text-anchor="middle" fill="#FFFFFF" font-family="Inter, Avenir Next, Segoe UI, Arial, sans-serif" font-size="58" font-weight="850">M</text>
  <circle cx="110" cy="78" r="7" fill="#2F8FA3"/>
  <path d="M87 161C103 170 117 170 133 161" stroke="#C8922E" stroke-width="7" stroke-linecap="round"/>
</svg>
