<svg xmlns="http://www.w3.org/2000/svg" width="720" height="220" viewBox="0 0 720 220" role="img" aria-labelledby="title desc">
  <title id="title">Magnolia Senior Care logo on light background</title>
  <desc id="desc">Magnolia Senior Care logo with white background padding.</desc>
  <rect width="720" height="220" rx="18" fill="#FFFFFF"/>
  <g fill="none" fill-rule="evenodd">
    <g transform="translate(38 34)">
      <circle cx="76" cy="76" r="72" fill="#FFFFFF" stroke="#E2DDD6" stroke-width="2"/>
      <path d="M31 73L76 37L121 73" stroke="#145A4A" stroke-width="11" stroke-linecap="round" stroke-linejoin="round"/>
      <path d="M44 75V116C44 122 49 127 55 127H97C103 127 108 122 108 116V75" stroke="#145A4A" stroke-width="10" stroke-linecap="round" stroke-linejoin="round"/>
      <circle cx="76" cy="84" r="12" fill="#2F8FA3"/>
      <path d="M53 113C61 100 69 95 76 95C83 95 91 100 99 113" stroke="#2F8FA3" stroke-width="10" stroke-linecap="round"/>
      <path d="M55 128C69 137 83 137 97 128" stroke="#C8922E" stroke-width="8" stroke-linecap="round"/>
    </g>
    <g transform="translate(208 50)">
      <text x="0" y="62" fill="#145A4A" font-family="Inter, Avenir Next, Segoe UI, Arial, sans-serif" font-size="58" font-weight="800" letter-spacing="0">Magnolia</text>
      <text x="3" y="106" fill="#145A4A" font-family="Inter, Avenir Next, Segoe UI, Arial, sans-serif" font-size="30" font-weight="600" letter-spacing="1.5">Senior Care</text>
      <path d="M3 126H314" stroke="#C8922E" stroke-width="5" stroke-linecap="round"/>
      <text x="4" y="158" fill="#5F6F73" font-family="Inter, Avenir Next, Segoe UI, Arial, sans-serif" font-size="22" font-weight="600" letter-spacing="2.6">Adult Family Homes</text>
    </g>
  </g>
</svg>
