<svg xmlns="http://www.w3.org/2000/svg" width="940" height="290" viewBox="0 0 940 290" role="img" aria-labelledby="title desc">
  <title id="title">Magnolia Senior Care logo on dark background</title>
  <desc id="desc">Premium reverse Magnolia Senior Care logo on deep green background.</desc>
  <rect width="940" height="290" rx="20" fill="#145A4A"/>
  <g fill="none" fill-rule="evenodd">
    <g transform="translate(36 72)">
      <path d="M70 100C54 71 36 49 14 34C52 33 81 54 94 90" stroke="#C8922E" stroke-width="7" stroke-linecap="round" stroke-linejoin="round"/>
      <path d="M78 108C96 76 119 56 149 48C148 86 124 113 84 125" stroke="#FFFFFF" stroke-width="7" stroke-linecap="round" stroke-linejoin="round"/>
      <path d="M82 130C122 166 181 173 244 144" stroke="#2F8FA3" stroke-width="10" stroke-linecap="round"/>
      <path d="M90 132C126 152 173 151 226 131" stroke="#C8922E" stroke-width="5" stroke-linecap="round" opacity=".82"/>
    </g>
    <g transform="translate(332 24)">
      <path d="M0 82L162 17L324 82" stroke="#FFFFFF" stroke-width="13" stroke-linecap="round" stroke-linejoin="round"/>
      <path d="M35 82L162 37L289 82" stroke="#C8922E" stroke-width="5" stroke-linecap="round"/>
      <circle cx="162" cy="96" r="12" fill="#2F8FA3"/>
      <path d="M126 139C140 113 153 101 162 101C171 101 184 113 198 139" stroke="#2F8FA3" stroke-width="13" stroke-linecap="round"/>
      <path d="M128 158C151 171 173 171 196 158" stroke="#C8922E" stroke-width="8" stroke-linecap="round"/>
    </g>
    <text x="118" y="190" fill="#FFFFFF" font-family="Inter, Avenir Next, Segoe UI, Arial, sans-serif" font-size="116" font-weight="850" letter-spacing="-4">Magnolia</text>
    <path d="M122 222H365" stroke="#C8922E" stroke-width="8" stroke-linecap="round"/>
    <path d="M696 222H870" stroke="#C8922E" stroke-width="8" stroke-linecap="round"/>
    <text x="394" y="236" fill="#C8922E" font-family="Inter, Avenir Next, Segoe UI, Arial, sans-serif" font-size="48" font-weight="800" letter-spacing="8">Senior Care</text>
    <text x="404" y="268" fill="#F0ECE6" font-family="Inter, Avenir Next, Segoe UI, Arial, sans-serif" font-size="19" font-weight="650" letter-spacing="3">Adult Family Homes</text>
  </g>
</svg>
