<svg xmlns="http://www.w3.org/2000/svg" width="660" height="170" viewBox="0 0 660 170" role="img" aria-labelledby="title desc">
  <title id="title">Magnolia Senior Care</title>
  <desc id="desc">Premium compact Magnolia Senior Care logo with flower, roof, and care symbol.</desc>
  <g fill="none" fill-rule="evenodd">
    <g transform="translate(16 20)">
      <path d="M43 97C33 77 24 60 13 47C34 48 50 61 58 82" stroke="#C8922E" stroke-width="5" stroke-linecap="round" stroke-linejoin="round"/>
      <path d="M47 97C55 78 67 64 84 55C84 77 72 94 51 105" stroke="#145A4A" stroke-width="5" stroke-linecap="round" stroke-linejoin="round"/>
      <path d="M49 108C63 123 83 128 108 122" stroke="#2F8FA3" stroke-width="6" stroke-linecap="round"/>
      <path d="M78 64L125 26L172 64" stroke="#145A4A" stroke-width="8" stroke-linecap="round" stroke-linejoin="round"/>
      <path d="M92 66V103C92 109 97 114 103 114H147C153 114 158 109 158 103V66" stroke="#145A4A" stroke-width="7" stroke-linecap="round" stroke-linejoin="round"/>
      <circle cx="125" cy="73" r="7" fill="#2F8FA3"/>
      <path d="M104 100C112 88 119 83 125 83C131 83 138 88 146 100" stroke="#2F8FA3" stroke-width="7" stroke-linecap="round"/>
      <path d="M104 118C118 126 132 126 146 118" stroke="#C8922E" stroke-width="6" stroke-linecap="round"/>
    </g>
    <g transform="translate(212 34)">
      <text x="0" y="55" fill="#145A4A" font-family="Inter, Avenir Next, Segoe UI, Arial, sans-serif" font-size="52" font-weight="850" letter-spacing="-1.6">Magnolia</text>
      <text x="2" y="98" fill="#C8922E" font-family="Inter, Avenir Next, Segoe UI, Arial, sans-serif" font-size="27" font-weight="800" letter-spacing="3.5">Senior Care</text>
      <path d="M2 116H238" stroke="#C8922E" stroke-width="4" stroke-linecap="round"/>
      <text x="4" y="141" fill="#5F6F73" font-family="Inter, Avenir Next, Segoe UI, Arial, sans-serif" font-size="15" font-weight="650" letter-spacing="2">Adult Family Homes</text>
    </g>
  </g>
</svg>
