<svg xmlns="http://www.w3.org/2000/svg" viewBox="0 0 1200 760" role="img" aria-labelledby="title desc">
  <title id="title">Magnolia Senior Care photo placeholder</title>
  <desc id="desc">Warm Magnolia Senior Care branded fallback image for home photos.</desc>
  <defs>
    <linearGradient id="bg" x1="0" x2="1" y1="0" y2="1">
      <stop offset="0" stop-color="#fbf8f1"/>
      <stop offset="0.55" stop-color="#eef8f5"/>
      <stop offset="1" stop-color="#fff"/>
    </linearGradient>
    <linearGradient id="leaf" x1="0" x2="1" y1="0" y2="1">
      <stop offset="0" stop-color="#0f766e"/>
      <stop offset="1" stop-color="#c9a25c"/>
    </linearGradient>
  </defs>
  <rect width="1200" height="760" fill="url(#bg)"/>
  <rect x="48" y="48" width="1104" height="664" rx="38" fill="none" stroke="#d8c394" stroke-width="3" opacity="0.65"/>
  <g transform="translate(600 326)">
    <circle r="132" fill="#fff" opacity="0.78"/>
    <path d="M-18 74c-50-22-82-64-82-112 53 4 93 31 118 77 24-56 72-91 139-101-4 75-57 132-134 144-14 2-27-1-41-8Z" fill="url(#leaf)" opacity="0.9"/>
    <path d="M-14 73C4 30 46-9 111-41" fill="none" stroke="#fff" stroke-width="11" stroke-linecap="round" opacity="0.84"/>
  </g>
  <text x="600" y="540" text-anchor="middle" font-family="Georgia, 'Times New Roman', serif" font-size="52" fill="#103431">Magnolia Senior Care</text>
  <text x="600" y="592" text-anchor="middle" font-family="Arial, Helvetica, sans-serif" font-size="24" font-weight="700" letter-spacing="2" fill="#7b6a43">RN-LED HOME-BASED CARE</text>
</svg>
